HIERARCHY
ROOT Hips
{
	OFFSET -0.001795 -0.223333 0.028219
	CHANNELS 6 Xposition Yposition Zposition Zrotation Yrotation Xrotation 
	JOINT LeftUpLeg
	{
		OFFSET 0.069520 -0.091406 -0.006815
		CHANNELS 3 Zrotation Yrotation Xrotation
		JOINT LeftLeg
		{
			OFFSET 0.034277 -0.375199 -0.004496
			CHANNELS 3 Zrotation Yrotation Xrotation
			JOINT LeftFoot
			{
				OFFSET -0.013596 -0.397961 -0.043693
				CHANNELS 3 Zrotation Yrotation Xrotation
				JOINT LeftToe
				{
					OFFSET 0.026358 -0.055791 0.119288
					CHANNELS 3 Zrotation Yrotation Xrotation
					End Site
					{
						OFFSET 0.000000 0.000000 0.000000
					}
				}
			}
		}
	}
	JOINT RightUpLeg
	{
		OFFSET -0.067670 -0.090522 -0.004320
		CHANNELS 3 Zrotation Yrotation Xrotation
		JOINT RightLeg
		{
			OFFSET -0.038290 -0.382569 -0.008850
			CHANNELS 3 Zrotation Yrotation Xrotation
			JOINT RightFoot
			{
				OFFSET 0.015774 -0.398415 -0.042312
				CHANNELS 3 Zrotation Yrotation Xrotation
				JOINT RightToe
				{
					OFFSET -0.025372 -0.048144 0.123348
					CHANNELS 3 Zrotation Yrotation Xrotation
					End Site
					{
						OFFSET 0.000000 0.000000 0.000000
					}
				}
			}
		}
	}
	JOINT Spine
	{
		OFFSET -0.002533 0.108963 -0.026696
		CHANNELS 3 Zrotation Yrotation Xrotation
		JOINT Spine1
		{
			OFFSET 0.005487 0.135180 0.001092
			CHANNELS 3 Zrotation Yrotation Xrotation
			JOINT Spine2
			{
				OFFSET 0.001457 0.052922 0.025425
				CHANNELS 3 Zrotation Yrotation Xrotation
				JOINT Neck
				{
					OFFSET -0.002778 0.213870 -0.042857
					CHANNELS 3 Zrotation Yrotation Xrotation
					JOINT Head
					{
						OFFSET 0.005152 0.064970 0.051349
						CHANNELS 3 Zrotation Yrotation Xrotation
						End Site
						{
							OFFSET 0.000000 0.000000 0.000000
						}
					}
				}
				JOINT LeftShoulder
				{
					OFFSET 0.078845 0.121749 -0.034090
					CHANNELS 3 Zrotation Yrotation Xrotation
					JOINT LeftArm
					{
						OFFSET 0.090977 0.030469 -0.008868
						CHANNELS 3 Zrotation Yrotation Xrotation
						JOINT LeftForeArm
						{
							OFFSET 0.259612 -0.012772 -0.027456
							CHANNELS 3 Zrotation Yrotation Xrotation
							JOINT LeftHand
							{
								OFFSET 0.249234 0.008986 -0.001171
								CHANNELS 3 Zrotation Yrotation Xrotation
								End Site
								{
									OFFSET 0.000000 0.000000 0.000000
								}
							}
						}
					}
				}
				JOINT RightShoulder
				{
					OFFSET -0.081759 0.118833 -0.038615
					CHANNELS 3 Zrotation Yrotation Xrotation
					JOINT RightArm
					{
						OFFSET -0.096012 0.032551 -0.009143
						CHANNELS 3 Zrotation Yrotation Xrotation
						JOINT RightForeArm
						{
							OFFSET -0.253742 -0.013329 -0.021401
							CHANNELS 3 Zrotation Yrotation Xrotation
							JOINT RightHand
							{
								OFFSET -0.255298 0.007772 -0.005559
								CHANNELS 3 Zrotation Yrotation Xrotation
								End Site
								{
									OFFSET 0.000000 0.000000 0.000000
								}
							}
						}
					}
				}
			}
		}
	}
}
MOTION
Frames: 13
Frame Time: 0.050000
0.000000 0.928269 0.000000 -0.559151 -8.161846 -1.566551 0.248935 -1.179134 -14.495688 -1.675006 0.179666 2.614432 3.684926 10.272983 16.529749 0.000000 0.000000 0.000000 1.756059 -1.243415 12.149914 -0.475903 0.741771 12.343547 1.340495 2.006097 1.925277 0.000000 0.000000 0.000000 0.346662 -0.305203 7.763272 -3.784491 2.115984 5.806142 -0.204801 6.865170 2.285478 5.781519 -1.511190 -19.609774 0.000000 0.000000 0.000000 -33.392332 -13.959370 4.855119 -38.439128 -6.439955 -1.998171 -1.726226 -24.790767 1.192999 0.000000 0.000000 0.000000 31.582353 11.260220 5.915138 45.294019 13.801595 0.338009 0.184202 30.126938 1.187912 0.000000 0.000000 0.000000 
0.004351 0.928480 0.035895 -1.385070 -6.653149 -1.741609 0.189270 -1.090323 -12.887783 -1.647039 0.147362 4.263361 3.437052 9.522559 12.393539 0.000000 0.000000 0.000000 1.170853 -0.988550 9.740097 1.793172 0.691754 21.123610 2.323955 1.731614 6.146109 0.000000 0.000000 0.000000 -0.090203 -0.291016 8.055475 -3.109695 1.683030 5.287375 -0.296094 5.814531 3.587029 5.882134 -1.517771 -20.444232 0.000000 0.000000 0.000000 -33.232437 -12.600862 4.103412 -37.708321 -8.400859 -1.546882 -1.867718 -23.687606 1.186748 0.000000 0.000000 0.000000 29.975167 10.341725 5.090230 48.385885 13.721271 0.379664 0.296678 29.481813 1.199624 0.000000 0.000000 0.000000 
0.007856 0.933106 0.068851 -1.205051 -6.930954 -2.268474 -0.710444 -1.047353 -11.145920 -1.317762 0.073451 6.142820 3.781819 9.811448 10.677429 0.000000 0.000000 0.000000 -1.235128 -0.360080 5.021441 4.638937 0.290893 31.240633 3.904580 0.476911 14.424506 0.000000 0.000000 0.000000 -1.905107 -0.176527 9.703739 -2.772332 1.424985 2.907887 -0.204749 6.185152 5.692672 4.681657 -0.997785 -19.390951 0.000000 0.000000 0.000000 -31.923880 -14.402037 5.416139 -37.710033 -9.914948 -1.266377 -1.600863 -23.935597 1.151090 0.000000 0.000000 0.000000 28.058715 11.055687 5.596695 49.785152 12.688704 -0.178764 1.397490 30.655548 1.577789 0.000000 0.000000 0.000000 
0.010276 0.935835 0.098071 -1.776964 -6.771077 -2.252580 -0.187044 -0.740229 -8.115550 -1.934690 0.195025 4.299046 3.732503 9.528541 9.109628 0.000000 0.000000 0.000000 -1.682875 0.053864 -0.006244 6.528379 -0.237814 38.140010 2.423699 -4.494717 20.469951 0.000000 0.000000 0.000000 -2.045547 -0.169402 9.971233 -2.599900 1.387085 4.710311 -0.349792 4.373394 4.348633 4.785972 -1.166051 -19.807624 0.000000 0.000000 0.000000 -31.919435 -14.604893 6.242744 -36.364429 -11.165838 -1.006284 -1.573691 -24.252669 1.200255 0.000000 0.000000 0.000000 27.373958 12.233423 5.615302 50.827777 11.622848 -0.255458 1.075036 30.783498 1.383702 0.000000 0.000000 0.000000 
0.011464 0.939096 0.124738 -2.375852 -6.407219 -2.560261 0.046771 -0.484331 -5.342441 -1.753290 0.173375 3.236770 3.534978 9.065302 8.073205 0.000000 0.000000 0.000000 -1.760156 0.404199 -4.255937 7.901823 -0.865349 41.360264 -1.154376 -9.796766 19.373553 0.000000 0.000000 0.000000 -2.678370 -0.124879 11.186581 -1.939893 1.021644 4.623412 -0.626728 3.127169 4.884939 4.514535 -1.126793 -19.928658 0.000000 0.000000 0.000000 -32.809070 -16.069428 7.848919 -33.944227 -12.762014 -0.739036 -0.553741 -24.495745 1.021214 0.000000 0.000000 0.000000 27.328783 13.051185 5.754586 50.564103 11.346422 -0.304724 0.490752 31.495112 1.206953 0.000000 0.000000 0.000000 
0.012126 0.941729 0.150210 -3.199830 -6.295663 -2.972645 0.941524 -0.229560 -2.818706 -2.139698 0.235747 2.751306 3.442660 8.761216 7.093995 0.000000 0.000000 0.000000 -1.621853 0.775270 -8.386956 8.736494 -1.308972 40.681703 -4.647399 -14.105373 11.719421 0.000000 0.000000 0.000000 -2.481237 -0.161858 12.676305 -1.801804 0.936729 4.224000 -0.709993 1.356979 5.035609 4.474513 -1.304386 -19.893982 0.000000 0.000000 0.000000 -32.751577 -16.843386 9.203237 -32.141397 -14.479818 -0.554844 -0.356495 -24.845841 1.024426 0.000000 0.000000 0.000000 28.281038 14.019244 5.731700 50.125544 10.386079 -0.502160 -0.244279 32.340595 0.928438 0.000000 0.000000 0.000000 
0.012117 0.943343 0.174611 -3.716020 -6.325170 -2.864886 1.549467 -0.049155 -0.782191 -2.493330 0.293685 1.938665 3.421652 8.602251 6.348009 0.000000 0.000000 0.000000 -1.713224 1.153355 -12.396004 8.779947 -1.349320 37.733039 -5.354925 -14.482214 6.034518 0.000000 0.000000 0.000000 -2.650778 -0.145844 13.355662 -1.398467 0.727365 4.677413 -1.013440 0.704442 4.440354 4.888606 -1.670848 -19.137384 0.000000 0.000000 0.000000 -32.483546 -17.628244 9.972895 -31.083041 -16.061848 -0.229838 0.888880 -24.141914 0.738295 0.000000 0.000000 0.000000 28.243405 13.581951 5.183791 50.763472 9.715401 -0.652935 -0.682667 32.099370 0.754543 0.000000 0.000000 0.000000 
0.011206 0.943537 0.198461 -4.149430 -7.456997 -2.826233 1.566696 0.124371 1.280830 -1.957550 0.229933 1.368953 3.994764 9.486489 5.509537 0.000000 0.000000 0.000000 -1.043001 1.571044 -15.644338 7.533126 -0.720062 32.734816 -6.024204 -16.078511 6.981238 0.000000 0.000000 0.000000 -2.786931 -0.110103 14.225983 -0.717584 0.377516 4.415840 -1.368548 0.343112 4.412913 4.670241 -1.680027 -18.703027 0.000000 0.000000 0.000000 -31.770431 -18.461599 10.842964 -30.299107 -17.326260 -0.055906 0.993008 -24.285651 0.729657 0.000000 0.000000 0.000000 28.323109 13.462394 4.764278 50.624669 9.065464 -0.814066 -0.921296 32.897655 0.645679 0.000000 0.000000 0.000000 
0.008732 0.942354 0.223172 -4.481909 -7.713180 -2.610308 1.709633 0.268791 2.998324 -1.658708 0.194329 1.012471 4.217518 9.739444 4.326460 0.000000 0.000000 0.000000 -0.931242 1.940106 -18.675512 6.327099 -0.420556 25.888427 -5.769277 -16.064706 9.450357 0.000000 0.000000 0.000000 -2.605827 -0.127851 14.507614 -0.179371 0.096437 4.692293 -1.886552 -0.382887 4.034036 5.170754 -2.061199 -18.445405 0.000000 0.000000 0.000000 -31.915023 -18.639463 11.297287 -28.905705 -18.415150 0.069828 0.733312 -24.332142 0.789823 0.000000 0.000000 0.000000 29.180384 12.823864 4.024573 50.125562 8.011879 -1.090898 -0.011116 33.168907 0.841726 0.000000 0.000000 0.000000 
0.004791 0.940069 0.249912 -4.847972 -7.613509 -2.608944 1.708845 0.493076 5.576350 -0.823213 0.109297 -0.246482 4.283707 9.705267 3.048131 0.000000 0.000000 0.000000 -1.099022 2.086943 -20.129265 5.011864 -0.257231 17.657802 -4.512107 -14.424808 12.813158 0.000000 0.000000 0.000000 -2.633658 -0.127403 14.537690 0.379119 -0.204760 5.402516 -1.987115 -0.756929 3.391650 4.903589 -1.962027 -17.993601 0.000000 0.000000 0.000000 -31.513225 -19.312053 11.781825 -28.596700 -18.506006 0.099879 0.697255 -24.680771 0.807909 0.000000 0.000000 0.000000 28.797523 12.499804 3.690765 50.435903 6.073534 -1.819649 0.412427 34.625028 0.966500 0.000000 0.000000 0.000000 
-0.000517 0.937005 0.279002 -4.911321 -7.501964 -2.149046 1.720293 0.651868 7.372753 -0.466306 0.080159 -0.796636 4.374149 9.718341 1.826375 0.000000 0.000000 0.000000 -1.435276 2.098866 -20.672161 3.955643 -0.203104 10.471500 -3.208341 -12.509625 14.343189 0.000000 0.000000 0.000000 -2.238557 -0.175752 13.630501 0.383470 -0.206787 5.516232 -1.917060 -1.827038 3.274038 4.462890 -1.780738 -18.277994 0.000000 0.000000 0.000000 -31.887108 -18.704086 11.903366 -28.545455 -18.587241 -0.008229 0.446982 -26.024921 0.935077 0.000000 0.000000 0.000000 28.788098 11.879147 2.828683 50.315532 4.343307 -2.367641 2.084497 35.207425 1.383717 0.000000 0.000000 0.000000 
-0.007238 0.932549 0.309849 -4.743724 -6.781205 -1.853455 1.386693 0.819045 9.051499 0.416263 -0.023390 -0.770995 4.323588 9.377139 0.355900 0.000000 0.000000 0.000000 -2.114929 2.052761 -21.391256 3.120164 -0.183045 5.846608 -1.996649 -10.904561 16.589277 0.000000 0.000000 0.000000 -1.779425 -0.233341 12.714591 0.736740 -0.417395 6.335409 -2.092785 -2.466891 2.411571 4.328862 -1.804316 -17.206540 0.000000 0.000000 0.000000 -31.385859 -18.344628 11.630543 -29.405592 -18.870777 0.127173 -0.703722 -26.531355 1.234010 0.000000 0.000000 0.000000 29.332555 11.536050 2.442907 49.381622 2.287126 -3.002648 2.255137 35.164523 1.401766 0.000000 0.000000 0.000000 
-0.015820 0.927561 0.341974 -4.531306 -6.577515 -1.776263 1.690334 0.984899 11.081333 0.232293 -0.006052 -0.652429 4.351999 9.254393 -0.744964 0.000000 0.000000 0.000000 -2.257160 2.047458 -21.612506 3.146242 -0.206173 5.030225 -1.046293 -10.161421 19.947895 0.000000 0.000000 0.000000 -0.931959 -0.324041 12.170511 1.159412 -0.656722 6.623477 -3.116387 -1.905740 1.987923 5.413176 -2.260078 -17.774592 0.000000 0.000000 0.000000 -30.995937 -18.836128 11.467845 -30.629574 -18.207758 0.186874 -1.433703 -27.645343 1.454689 0.000000 0.000000 0.000000 30.037721 10.723664 2.263387 48.710496 1.360758 -3.388054 1.642669 34.477823 1.274451 0.000000 0.000000 0.000000 
